<?xml version="1.0" encoding="UTF-8" standalone="no"?>
<!-- See license.txt for terms of usage -->
<svg
   xmlns:dc="http://purl.org/dc/elements/1.1/"
   xmlns:cc="http://creativecommons.org/ns#"
   xmlns:rdf="http://www.w3.org/1999/02/22-rdf-syntax-ns#"
   xmlns:svg="http://www.w3.org/2000/svg"
   xmlns="http://www.w3.org/2000/svg"
   xmlns:xlink="http://www.w3.org/1999/xlink"
   viewBox="0 0 14 14"
   version="1.1"
   id="svg2"
   height="14"
   width="14">
  <defs
     id="defs4">
    <linearGradient
       id="linearGradient5270">
      <stop
         id="stop5272"
         offset="0"
         style="stop-color:#646464;stop-opacity:1" />
      <stop
         id="stop5274"
         offset="1"
         style="stop-color:#a0a0a0;stop-opacity:1" />
    </linearGradient>
    <linearGradient
       id="linearGradient5262">
      <stop
         id="stop5264"
         offset="0"
         style="stop-color:#8c8c8c;stop-opacity:1" />
      <stop
         id="stop5266"
         offset="1"
         style="stop-color:#b4b4b4;stop-opacity:1" />
    </linearGradient>
    <linearGradient
       gradientTransform="translate(0,-1038.3622)"
       gradientUnits="userSpaceOnUse"
       y2="1040.0425"
       x2="4.5703325"
       y1="1050.7433"
       x1="9.1227617"
       id="linearGradient5288"
       xlink:href="#linearGradient5270" />
    <linearGradient
       gradientTransform="translate(0,-1038.3622)"
       gradientUnits="userSpaceOnUse"
       y2="1041.6998"
       x2="2.8516624"
       y1="1050.8047"
       x1="6.6265984"
       id="linearGradient5296"
       xlink:href="#linearGradient5262" />
  </defs>
  <metadata
     id="metadata7">
    <rdf:RDF>
      <cc:Work
         rdf:about="">
        <dc:format>image/svg+xml</dc:format>
        <dc:type
           rdf:resource="http://purl.org/dc/dcmitype/StillImage" />
        <dc:title></dc:title>
      </cc:Work>
    </rdf:RDF>
  </metadata>
  <g
     transform="translate(0,-1038.3622)"
     id="layer1">
    <path
       id="path5286"
       transform="translate(0,1038.3622)"
       d="M 6.6992188 0.19921875 L 6.6992188 1.2148438 A 5.8000002 5.8000002 0 0 0 1.2089844 6.6992188 L 0.19921875 6.6992188 L 0.19921875 7.3007812 L 1.2148438 7.3007812 A 5.8000002 5.8000002 0 0 0 6.6992188 12.791016 L 6.6992188 13.800781 L 7.3007812 13.800781 L 7.3007812 12.785156 A 5.8000002 5.8000002 0 0 0 12.791016 7.3007812 L 13.800781 7.3007812 L 13.800781 6.6992188 L 12.785156 6.6992188 A 5.8000002 5.8000002 0 0 0 7.3007812 1.2089844 L 7.3007812 0.19921875 L 6.6992188 0.19921875 z M 6.6992188 1.8125 L 6.6992188 3.8007812 L 7.3007812 3.8007812 L 7.3007812 1.8164062 A 5.1999998 5.1999998 0 0 1 12.1875 6.6992188 L 10.199219 6.6992188 L 10.199219 7.3007812 L 12.183594 7.3007812 A 5.1999998 5.1999998 0 0 1 7.3007812 12.1875 L 7.3007812 10.199219 L 6.6992188 10.199219 L 6.6992188 12.183594 A 5.1999998 5.1999998 0 0 1 1.8125 7.3007812 L 3.8007812 7.3007812 L 3.8007812 6.6992188 L 1.8164062 6.6992188 A 5.1999998 5.1999998 0 0 1 6.6992188 1.8125 z M 7 6.1992188 A 0.80000001 0.80000001 0 0 0 6.1992188 7 A 0.80000001 0.80000001 0 0 0 7 7.8007812 A 0.80000001 0.80000001 0 0 0 7.8007812 7 A 0.80000001 0.80000001 0 0 0 7 6.1992188 z "
       style="color:#000000;color-interpolation:sRGB;color-interpolation-filters:linearRGB;fill:url(#linearGradient5296);fill-opacity:1;fill-rule:nonzero;stroke:url(#linearGradient5288);stroke-width:0.40000001;stroke-linecap:butt;stroke-linejoin:round;stroke-miterlimit:4;stroke-opacity:1;stroke-dasharray:none;stroke-dashoffset:0;marker:none;visibility:visible;display:inline;overflow:visible;enable-background:accumulate;clip-rule:nonzero" />
  </g>
</svg>
